<svg xmlns="http://www.w3.org/2000/svg" xmlns:xlink="http://www.w3.org/1999/xlink" width="172" zoomAndPan="magnify" viewBox="0 0 129 37.5" height="50" preserveAspectRatio="xMidYMid meet" version="1.0"><defs><g/><clipPath id="id1"><path d="M 0.847656 6.886719 L 26.753906 6.886719 L 26.753906 32.792969 L 0.847656 32.792969 Z M 0.847656 6.886719 " clip-rule="nonzero"/></clipPath><clipPath id="id2"><path d="M 6.304688 12.296875 L 28.507812 12.296875 L 28.507812 34.5 L 6.304688 34.5 Z M 6.304688 12.296875 " clip-rule="nonzero"/></clipPath></defs><g clip-path="url(#id1)"><path fill="#52057b" d="M 13.800781 6.886719 C 6.648438 6.886719 0.847656 12.6875 0.847656 19.839844 C 0.847656 26.992188 6.648438 32.792969 13.800781 32.792969 C 20.953125 32.792969 26.753906 26.992188 26.753906 19.839844 C 26.753906 12.6875 20.953125 6.886719 13.800781 6.886719 " fill-opacity="1" fill-rule="nonzero"/></g><g clip-path="url(#id2)"><path fill="#ffffff" d="M 27.1875 28.007812 C 26.488281 27.566406 25.523438 27.15625 24.464844 26.851562 C 23.417969 26.550781 22.386719 26.382812 21.5625 26.382812 C 20.445312 26.382812 19.792969 26.6875 19.609375 27.296875 C 19.609375 27.296875 19.539062 27.546875 19.449219 27.84375 C 19.445312 27.859375 19.441406 27.878906 19.4375 27.894531 L 19.242188 28.570312 C 19.015625 28.507812 18.8125 28.386719 18.648438 28.214844 L 12.738281 22.113281 C 12.503906 21.867188 12.378906 21.542969 12.378906 21.199219 C 12.417969 21.1875 12.460938 21.175781 12.503906 21.164062 C 12.722656 21.1875 12.921875 21.148438 13.066406 21.0625 L 13.929688 20.589844 C 14.160156 20.460938 14.355469 20.355469 14.375 20.34375 C 14.394531 20.335938 14.417969 20.324219 14.4375 20.3125 C 15.582031 19.679688 14.804688 17.332031 13.789062 15.515625 C 13.492188 14.976562 11.929688 12.300781 10.527344 12.300781 C 10.351562 12.300781 10.1875 12.339844 10.039062 12.421875 C 10.03125 12.425781 10.023438 12.429688 10.015625 12.433594 L 9.542969 12.695312 C 9.527344 12.703125 9.507812 12.714844 9.488281 12.726562 C 8.785156 13.113281 8.277344 13.523438 7.734375 14.152344 C 7.382812 14.558594 7.09375 15 6.875 15.460938 C 6.433594 16.402344 6.300781 17.414062 6.507812 18.316406 C 6.796875 21.039062 8.96875 24.667969 12.472656 28.289062 C 15.765625 31.691406 19.609375 34.046875 22.507812 34.4375 C 22.789062 34.476562 23.054688 34.492188 23.308594 34.492188 C 24.1875 34.492188 24.972656 34.265625 25.699219 33.792969 C 26.832031 33.058594 27.585938 32.019531 28.140625 30.433594 C 28.148438 30.410156 28.160156 30.382812 28.167969 30.351562 L 28.246094 30.074219 C 28.285156 29.953125 28.308594 29.863281 28.3125 29.855469 C 28.316406 29.835938 28.324219 29.820312 28.328125 29.800781 C 28.507812 29.199219 28.121094 28.59375 27.1875 28.007812 Z M 27.1875 28.007812 " fill-opacity="1" fill-rule="nonzero"/></g><g fill="#52057b" fill-opacity="1"><g transform="translate(26.541489, 30.770357)"><g><path d="M 2.40625 -22.203125 L 10.140625 -22.203125 C 13.160156 -22.203125 15.398438 -21.753906 16.859375 -20.859375 C 18.328125 -19.960938 19.0625 -18.566406 19.0625 -16.671875 C 19.0625 -15.429688 18.742188 -14.367188 18.109375 -13.484375 C 17.472656 -12.609375 16.628906 -12.039062 15.578125 -11.78125 L 15.578125 -11.640625 C 16.960938 -11.273438 17.960938 -10.664062 18.578125 -9.8125 C 19.191406 -8.957031 19.5 -7.851562 19.5 -6.5 C 19.5 -4.488281 18.742188 -2.898438 17.234375 -1.734375 C 15.722656 -0.578125 13.660156 0 11.046875 0 L 2.40625 0 Z M 8.40625 -13.6875 L 10.203125 -13.6875 C 11.066406 -13.6875 11.734375 -13.863281 12.203125 -14.21875 C 12.671875 -14.570312 12.90625 -15.097656 12.90625 -15.796875 C 12.90625 -17.046875 11.96875 -17.671875 10.09375 -17.671875 L 8.40625 -17.671875 Z M 8.40625 -9.296875 L 8.40625 -4.640625 L 10.515625 -4.640625 C 12.390625 -4.640625 13.328125 -5.425781 13.328125 -7 C 13.328125 -7.738281 13.070312 -8.304688 12.5625 -8.703125 C 12.0625 -9.097656 11.335938 -9.296875 10.390625 -9.296875 Z M 8.40625 -9.296875 "/></g></g><g transform="translate(47.499976, 30.770357)"><g><path d="M 2.40625 0 L 2.40625 -22.203125 L 8.40625 -22.203125 L 8.40625 -4.84375 L 16.953125 -4.84375 L 16.953125 0 Z M 2.40625 0 "/></g></g><g transform="translate(65.603248, 30.770357)"><g><path d="M 2.40625 0 L 2.40625 -22.203125 L 8.4375 -22.203125 L 8.4375 0 Z M 2.40625 0 "/></g></g><g transform="translate(76.4318, 30.770357)"><g><path d="M 23.546875 0 L 15.671875 0 L 7.5625 -15.640625 L 7.421875 -15.640625 C 7.617188 -13.179688 7.71875 -11.304688 7.71875 -10.015625 L 7.71875 0 L 2.40625 0 L 2.40625 -22.203125 L 10.234375 -22.203125 L 18.3125 -6.78125 L 18.40625 -6.78125 C 18.269531 -9.007812 18.203125 -10.804688 18.203125 -12.171875 L 18.203125 -22.203125 L 23.546875 -22.203125 Z M 23.546875 0 "/></g></g><g transform="translate(102.371724, 30.770357)"><g><path d="M 11.3125 -13 L 20.90625 -13 L 20.90625 -1.03125 C 18.300781 -0.144531 15.4375 0.296875 12.3125 0.296875 C 8.894531 0.296875 6.25 -0.691406 4.375 -2.671875 C 2.507812 -4.660156 1.578125 -7.492188 1.578125 -11.171875 C 1.578125 -14.753906 2.597656 -17.539062 4.640625 -19.53125 C 6.691406 -21.53125 9.5625 -22.53125 13.25 -22.53125 C 14.644531 -22.53125 15.960938 -22.394531 17.203125 -22.125 C 18.441406 -21.863281 19.523438 -21.53125 20.453125 -21.125 L 18.546875 -16.421875 C 16.941406 -17.210938 15.1875 -17.609375 13.28125 -17.609375 C 11.519531 -17.609375 10.160156 -17.035156 9.203125 -15.890625 C 8.253906 -14.753906 7.78125 -13.128906 7.78125 -11.015625 C 7.78125 -8.941406 8.210938 -7.359375 9.078125 -6.265625 C 9.941406 -5.179688 11.191406 -4.640625 12.828125 -4.640625 C 13.710938 -4.640625 14.53125 -4.722656 15.28125 -4.890625 L 15.28125 -8.375 L 11.3125 -8.375 Z M 11.3125 -13 "/></g></g></g></svg>